<mxfile host="65bd71144e" pages="2">
    <diagram name="Página-1" id="Cxu6KIvfIRVKAjqu6Hsg">
        <mxGraphModel dx="960" dy="698" grid="1" gridSize="10" guides="1" tooltips="1" connect="1" arrows="1" fold="1" page="1" pageScale="1" pageWidth="827" pageHeight="1169" math="0" shadow="0">
            <root>
                <mxCell id="0"/>
                <mxCell id="1" parent="0"/>
                <mxCell id="4I1Yv1p1mu-zc7oiHH4C-1" value="&lt;blockquote style=&quot;margin: 0 0 0 40px; border: none; padding: 0px;&quot;&gt;&lt;div style=&quot;&quot;&gt;&lt;span style=&quot;background-color: initial;&quot;&gt;Cliente&lt;/span&gt;&lt;/div&gt;&lt;/blockquote&gt;&lt;div style=&quot;&quot;&gt;&lt;br&gt;&lt;/div&gt;" style="rounded=0;whiteSpace=wrap;html=1;align=left;" parent="1" vertex="1">
                    <mxGeometry x="310" y="330" width="120" height="60" as="geometry"/>
                </mxCell>
                <mxCell id="4I1Yv1p1mu-zc7oiHH4C-2" value="Apellido" style="ellipse;whiteSpace=wrap;html=1;" parent="1" vertex="1">
                    <mxGeometry x="40" y="280" width="140" height="80" as="geometry"/>
                </mxCell>
                <mxCell id="4I1Yv1p1mu-zc7oiHH4C-4" value="Nombre" style="ellipse;whiteSpace=wrap;html=1;" parent="1" vertex="1">
                    <mxGeometry x="110" y="180" width="140" height="80" as="geometry"/>
                </mxCell>
                <mxCell id="4I1Yv1p1mu-zc7oiHH4C-5" value="Edad" style="ellipse;whiteSpace=wrap;html=1;" parent="1" vertex="1">
                    <mxGeometry x="250" y="120" width="130" height="80" as="geometry"/>
                </mxCell>
                <mxCell id="4I1Yv1p1mu-zc7oiHH4C-6" value="Numero de telefono" style="ellipse;whiteSpace=wrap;html=1;" parent="1" vertex="1">
                    <mxGeometry x="410" y="130" width="140" height="80" as="geometry"/>
                </mxCell>
                <mxCell id="4I1Yv1p1mu-zc7oiHH4C-7" value="Dirección" style="ellipse;whiteSpace=wrap;html=1;" parent="1" vertex="1">
                    <mxGeometry x="520" y="210" width="150" height="80" as="geometry"/>
                </mxCell>
                <mxCell id="4I1Yv1p1mu-zc7oiHH4C-9" value="Historial de compras" style="ellipse;whiteSpace=wrap;html=1;" parent="1" vertex="1">
                    <mxGeometry x="580" y="310" width="130" height="80" as="geometry"/>
                </mxCell>
                <mxCell id="4I1Yv1p1mu-zc7oiHH4C-14" value="" style="endArrow=none;html=1;rounded=0;exitX=0;exitY=0.25;exitDx=0;exitDy=0;entryX=1;entryY=1;entryDx=0;entryDy=0;" parent="1" source="4I1Yv1p1mu-zc7oiHH4C-1" target="4I1Yv1p1mu-zc7oiHH4C-2" edge="1">
                    <mxGeometry width="50" height="50" relative="1" as="geometry">
                        <mxPoint x="210" y="360" as="sourcePoint"/>
                        <mxPoint x="260" y="310" as="targetPoint"/>
                    </mxGeometry>
                </mxCell>
                <mxCell id="4I1Yv1p1mu-zc7oiHH4C-16" value="" style="endArrow=none;html=1;rounded=0;exitX=0.15;exitY=-0.043;exitDx=0;exitDy=0;exitPerimeter=0;" parent="1" source="4I1Yv1p1mu-zc7oiHH4C-1" target="4I1Yv1p1mu-zc7oiHH4C-4" edge="1">
                    <mxGeometry width="50" height="50" relative="1" as="geometry">
                        <mxPoint x="340" y="280" as="sourcePoint"/>
                        <mxPoint x="390" y="230" as="targetPoint"/>
                    </mxGeometry>
                </mxCell>
                <mxCell id="4I1Yv1p1mu-zc7oiHH4C-17" value="" style="endArrow=none;html=1;rounded=0;entryX=0.411;entryY=0.991;entryDx=0;entryDy=0;entryPerimeter=0;exitX=0.675;exitY=0.019;exitDx=0;exitDy=0;exitPerimeter=0;" parent="1" source="4I1Yv1p1mu-zc7oiHH4C-1" target="4I1Yv1p1mu-zc7oiHH4C-5" edge="1">
                    <mxGeometry width="50" height="50" relative="1" as="geometry">
                        <mxPoint x="390" y="320" as="sourcePoint"/>
                        <mxPoint x="390" y="230" as="targetPoint"/>
                    </mxGeometry>
                </mxCell>
                <mxCell id="4I1Yv1p1mu-zc7oiHH4C-18" style="edgeStyle=none;rounded=0;orthogonalLoop=1;jettySize=auto;html=1;entryX=0.607;entryY=-0.068;entryDx=0;entryDy=0;entryPerimeter=0;" parent="1" source="4I1Yv1p1mu-zc7oiHH4C-1" target="4I1Yv1p1mu-zc7oiHH4C-1" edge="1">
                    <mxGeometry relative="1" as="geometry"/>
                </mxCell>
                <mxCell id="4I1Yv1p1mu-zc7oiHH4C-19" value="" style="endArrow=none;html=1;rounded=0;exitX=0.891;exitY=-0.019;exitDx=0;exitDy=0;exitPerimeter=0;entryX=0.263;entryY=0.949;entryDx=0;entryDy=0;entryPerimeter=0;" parent="1" source="4I1Yv1p1mu-zc7oiHH4C-1" target="4I1Yv1p1mu-zc7oiHH4C-6" edge="1">
                    <mxGeometry width="50" height="50" relative="1" as="geometry">
                        <mxPoint x="340" y="280" as="sourcePoint"/>
                        <mxPoint x="390" y="230" as="targetPoint"/>
                    </mxGeometry>
                </mxCell>
                <mxCell id="4I1Yv1p1mu-zc7oiHH4C-20" value="" style="endArrow=none;html=1;rounded=0;" parent="1" target="4I1Yv1p1mu-zc7oiHH4C-7" edge="1">
                    <mxGeometry width="50" height="50" relative="1" as="geometry">
                        <mxPoint x="430" y="350" as="sourcePoint"/>
                        <mxPoint x="480" y="300" as="targetPoint"/>
                    </mxGeometry>
                </mxCell>
                <mxCell id="4I1Yv1p1mu-zc7oiHH4C-22" value="" style="endArrow=none;html=1;rounded=0;exitX=0;exitY=0.5;exitDx=0;exitDy=0;entryX=1;entryY=0.5;entryDx=0;entryDy=0;" parent="1" source="4I1Yv1p1mu-zc7oiHH4C-9" target="4I1Yv1p1mu-zc7oiHH4C-1" edge="1">
                    <mxGeometry width="50" height="50" relative="1" as="geometry">
                        <mxPoint x="400" y="370" as="sourcePoint"/>
                        <mxPoint x="450" y="320" as="targetPoint"/>
                    </mxGeometry>
                </mxCell>
                <mxCell id="1J_mVBLC9O3y7UZklyyU-1" value="Nombre" style="ellipse;whiteSpace=wrap;html=1;" parent="1" vertex="1">
                    <mxGeometry x="810" y="290" width="120" height="80" as="geometry"/>
                </mxCell>
                <mxCell id="1J_mVBLC9O3y7UZklyyU-2" value="Apellido" style="ellipse;whiteSpace=wrap;html=1;" parent="1" vertex="1">
                    <mxGeometry x="890" y="210" width="120" height="80" as="geometry"/>
                </mxCell>
                <mxCell id="1J_mVBLC9O3y7UZklyyU-3" value="Edad" style="ellipse;whiteSpace=wrap;html=1;" parent="1" vertex="1">
                    <mxGeometry x="1030" y="200" width="120" height="80" as="geometry"/>
                </mxCell>
                <mxCell id="1J_mVBLC9O3y7UZklyyU-4" value="Correo" style="ellipse;whiteSpace=wrap;html=1;" parent="1" vertex="1">
                    <mxGeometry x="1160" y="210" width="120" height="80" as="geometry"/>
                </mxCell>
                <mxCell id="1J_mVBLC9O3y7UZklyyU-5" value="Direccion" style="ellipse;whiteSpace=wrap;html=1;" parent="1" vertex="1">
                    <mxGeometry x="1240" y="275" width="120" height="80" as="geometry"/>
                </mxCell>
                <mxCell id="1J_mVBLC9O3y7UZklyyU-6" value="Provedor&lt;div&gt;&lt;br&gt;&lt;/div&gt;" style="rounded=0;whiteSpace=wrap;html=1;" parent="1" vertex="1">
                    <mxGeometry x="1024" y="370" width="120" height="60" as="geometry"/>
                </mxCell>
                <mxCell id="1J_mVBLC9O3y7UZklyyU-9" value="" style="endArrow=none;html=1;rounded=0;entryX=0.5;entryY=1;entryDx=0;entryDy=0;exitX=0.5;exitY=0;exitDx=0;exitDy=0;" parent="1" source="1J_mVBLC9O3y7UZklyyU-6" target="1J_mVBLC9O3y7UZklyyU-3" edge="1">
                    <mxGeometry width="50" height="50" relative="1" as="geometry">
                        <mxPoint x="1090" y="360" as="sourcePoint"/>
                        <mxPoint x="1140" y="310" as="targetPoint"/>
                    </mxGeometry>
                </mxCell>
                <mxCell id="1J_mVBLC9O3y7UZklyyU-10" value="" style="endArrow=none;html=1;rounded=0;entryX=0.806;entryY=0.983;entryDx=0;entryDy=0;entryPerimeter=0;exitX=0;exitY=0;exitDx=0;exitDy=0;" parent="1" source="1J_mVBLC9O3y7UZklyyU-6" target="1J_mVBLC9O3y7UZklyyU-2" edge="1">
                    <mxGeometry width="50" height="50" relative="1" as="geometry">
                        <mxPoint x="1000" y="370" as="sourcePoint"/>
                        <mxPoint x="1000" y="290" as="targetPoint"/>
                    </mxGeometry>
                </mxCell>
                <mxCell id="1J_mVBLC9O3y7UZklyyU-13" value="" style="endArrow=none;html=1;rounded=0;entryX=0.35;entryY=1.008;entryDx=0;entryDy=0;entryPerimeter=0;exitX=0.817;exitY=0.011;exitDx=0;exitDy=0;exitPerimeter=0;" parent="1" source="1J_mVBLC9O3y7UZklyyU-6" target="1J_mVBLC9O3y7UZklyyU-4" edge="1">
                    <mxGeometry width="50" height="50" relative="1" as="geometry">
                        <mxPoint x="1090" y="360" as="sourcePoint"/>
                        <mxPoint x="1140" y="310" as="targetPoint"/>
                    </mxGeometry>
                </mxCell>
                <mxCell id="1J_mVBLC9O3y7UZklyyU-14" value="" style="endArrow=none;html=1;rounded=0;entryX=0.939;entryY=0.842;entryDx=0;entryDy=0;entryPerimeter=0;exitX=0;exitY=0.5;exitDx=0;exitDy=0;" parent="1" source="1J_mVBLC9O3y7UZklyyU-6" target="1J_mVBLC9O3y7UZklyyU-1" edge="1">
                    <mxGeometry width="50" height="50" relative="1" as="geometry">
                        <mxPoint x="1090" y="360" as="sourcePoint"/>
                        <mxPoint x="1140" y="310" as="targetPoint"/>
                    </mxGeometry>
                </mxCell>
                <mxCell id="1J_mVBLC9O3y7UZklyyU-15" value="" style="endArrow=none;html=1;rounded=0;entryX=0.306;entryY=0.963;entryDx=0;entryDy=0;entryPerimeter=0;exitX=1;exitY=0.5;exitDx=0;exitDy=0;" parent="1" source="1J_mVBLC9O3y7UZklyyU-6" target="1J_mVBLC9O3y7UZklyyU-5" edge="1">
                    <mxGeometry width="50" height="50" relative="1" as="geometry">
                        <mxPoint x="1150" y="400" as="sourcePoint"/>
                        <mxPoint x="1140" y="310" as="targetPoint"/>
                    </mxGeometry>
                </mxCell>
                <mxCell id="8-n9sg8fZdAQryX5FhUH-1" value="Correo" style="ellipse;whiteSpace=wrap;html=1;" parent="1" vertex="1">
                    <mxGeometry x="1250" y="390" width="120" height="80" as="geometry"/>
                </mxCell>
                <mxCell id="8-n9sg8fZdAQryX5FhUH-2" value="" style="endArrow=none;html=1;rounded=0;entryX=0;entryY=0.5;entryDx=0;entryDy=0;exitX=0.967;exitY=0.833;exitDx=0;exitDy=0;exitPerimeter=0;" parent="1" source="1J_mVBLC9O3y7UZklyyU-6" target="8-n9sg8fZdAQryX5FhUH-1" edge="1">
                    <mxGeometry width="50" height="50" relative="1" as="geometry">
                        <mxPoint x="1150" y="420" as="sourcePoint"/>
                        <mxPoint x="1240" y="420" as="targetPoint"/>
                    </mxGeometry>
                </mxCell>
                <mxCell id="8-n9sg8fZdAQryX5FhUH-3" value="Factura" style="rounded=0;whiteSpace=wrap;html=1;" parent="1" vertex="1">
                    <mxGeometry x="260" y="730" width="140" height="70" as="geometry"/>
                </mxCell>
                <mxCell id="8-n9sg8fZdAQryX5FhUH-4" value="Rfc" style="ellipse;whiteSpace=wrap;html=1;" parent="1" vertex="1">
                    <mxGeometry x="50" y="620" width="120" height="80" as="geometry"/>
                </mxCell>
                <mxCell id="8-n9sg8fZdAQryX5FhUH-5" value="IDDF" style="ellipse;whiteSpace=wrap;html=1;" parent="1" vertex="1">
                    <mxGeometry x="160" y="560" width="120" height="80" as="geometry"/>
                </mxCell>
                <mxCell id="8-n9sg8fZdAQryX5FhUH-6" value="Fecha" style="ellipse;whiteSpace=wrap;html=1;" parent="1" vertex="1">
                    <mxGeometry x="290" y="550" width="120" height="80" as="geometry"/>
                </mxCell>
                <mxCell id="8-n9sg8fZdAQryX5FhUH-8" value="Respaldo" style="ellipse;whiteSpace=wrap;html=1;" parent="1" vertex="1">
                    <mxGeometry x="440" y="600" width="120" height="80" as="geometry"/>
                </mxCell>
                <mxCell id="8-n9sg8fZdAQryX5FhUH-9" value="" style="endArrow=none;html=1;rounded=0;entryX=0.967;entryY=0.775;entryDx=0;entryDy=0;entryPerimeter=0;exitX=-0.05;exitY=0.322;exitDx=0;exitDy=0;exitPerimeter=0;" parent="1" source="8-n9sg8fZdAQryX5FhUH-3" target="8-n9sg8fZdAQryX5FhUH-4" edge="1">
                    <mxGeometry width="50" height="50" relative="1" as="geometry">
                        <mxPoint x="310" y="640" as="sourcePoint"/>
                        <mxPoint x="360" y="590" as="targetPoint"/>
                    </mxGeometry>
                </mxCell>
                <mxCell id="8-n9sg8fZdAQryX5FhUH-10" value="" style="endArrow=none;html=1;rounded=0;entryX=0.633;entryY=1;entryDx=0;entryDy=0;entryPerimeter=0;exitX=0.25;exitY=0;exitDx=0;exitDy=0;" parent="1" source="8-n9sg8fZdAQryX5FhUH-3" target="8-n9sg8fZdAQryX5FhUH-5" edge="1">
                    <mxGeometry width="50" height="50" relative="1" as="geometry">
                        <mxPoint x="290" y="730" as="sourcePoint"/>
                        <mxPoint x="360" y="590" as="targetPoint"/>
                    </mxGeometry>
                </mxCell>
                <mxCell id="8-n9sg8fZdAQryX5FhUH-11" value="" style="endArrow=none;html=1;rounded=0;entryX=0.5;entryY=1;entryDx=0;entryDy=0;exitX=0.5;exitY=0;exitDx=0;exitDy=0;" parent="1" source="8-n9sg8fZdAQryX5FhUH-3" target="8-n9sg8fZdAQryX5FhUH-6" edge="1">
                    <mxGeometry width="50" height="50" relative="1" as="geometry">
                        <mxPoint x="300" y="640" as="sourcePoint"/>
                        <mxPoint x="350" y="590" as="targetPoint"/>
                    </mxGeometry>
                </mxCell>
                <mxCell id="8-n9sg8fZdAQryX5FhUH-13" value="" style="endArrow=none;html=1;rounded=0;entryX=0.061;entryY=0.717;entryDx=0;entryDy=0;entryPerimeter=0;" parent="1" target="8-n9sg8fZdAQryX5FhUH-8" edge="1">
                    <mxGeometry width="50" height="50" relative="1" as="geometry">
                        <mxPoint x="400" y="770" as="sourcePoint"/>
                        <mxPoint x="450" y="720" as="targetPoint"/>
                    </mxGeometry>
                </mxCell>
                <mxCell id="tdBTmRadGnwO2HK5aVkL-1" value="PRECIO&lt;span style=&quot;color: rgba(0, 0, 0, 0); font-family: monospace; font-size: 0px; text-align: start; text-wrap: nowrap;&quot;&gt;%3CmxGraphModel%3E%3Croot%3E%3CmxCell%20id%3D%220%22%2F%3E%3CmxCell%20id%3D%221%22%20parent%3D%220%22%2F%3E%3CmxCell%20id%3D%222%22%20value%3D%22CLIENTE%22%20style%3D%22shape%3Dtable%3BstartSize%3D30%3Bcontainer%3D1%3Bcollapsible%3D1%3BchildLayout%3DtableLayout%3BfixedRows%3D1%3BrowLines%3D0%3BfontStyle%3D1%3Balign%3Dcenter%3BresizeLast%3D1%3Bhtml%3D1%3B%22%20vertex%3D%221%22%20parent%3D%221%22%3E%3CmxGeometry%20x%3D%2280%22%20y%3D%22120%22%20width%3D%22240%22%20height%3D%22220%22%20as%3D%22geometry%22%2F%3E%3C%2FmxCell%3E%3CmxCell%20id%3D%223%22%20value%3D%22%22%20style%3D%22shape%3DtableRow%3Bhorizontal%3D0%3BstartSize%3D0%3BswimlaneHead%3D0%3BswimlaneBody%3D0%3BfillColor%3Dnone%3Bcollapsible%3D0%3BdropTarget%3D0%3Bpoints%3D%5B%5B0%2C0.5%5D%2C%5B1%2C0.5%5D%5D%3BportConstraint%3Deastwest%3Btop%3D0%3Bleft%3D0%3Bright%3D0%3Bbottom%3D1%3B%22%20vertex%3D%221%22%20parent%3D%222%22%3E%3CmxGeometry%20y%3D%2230%22%20width%3D%22240%22%20height%3D%2230%22%20as%3D%22geometry%22%2F%3E%3C%2FmxCell%3E%3CmxCell%20id%3D%224%22%20value%3D%22PK%22%20style%3D%22shape%3DpartialRectangle%3Bconnectable%3D0%3BfillColor%3Dnone%3Btop%3D0%3Bleft%3D0%3Bbottom%3D0%3Bright%3D0%3BfontStyle%3D1%3Boverflow%3Dhidden%3BwhiteSpace%3Dwrap%3Bhtml%3D1%3B%22%20vertex%3D%221%22%20parent%3D%223%22%3E%3CmxGeometry%20width%3D%2230%22%20height%3D%2230%22%20as%3D%22geometry%22%3E%3CmxRectangle%20width%3D%2230%22%20height%3D%2230%22%20as%3D%22alternateBounds%22%2F%3E%3C%2FmxGeometry%3E%3C%2FmxCell%3E%3CmxCell%20id%3D%225%22%20value%3D%22Nombre(INT%20NULL)(15)%22%20style%3D%22shape%3DpartialRectangle%3Bconnectable%3D0%3BfillColor%3Dnone%3Btop%3D0%3Bleft%3D0%3Bbottom%3D0%3Bright%3D0%3Balign%3Dleft%3BspacingLeft%3D6%3BfontStyle%3D5%3Boverflow%3Dhidden%3BwhiteSpace%3Dwrap%3Bhtml%3D1%3B%22%20vertex%3D%221%22%20parent%3D%223%22%3E%3CmxGeometry%20x%3D%2230%22%20width%3D%22210%22%20height%3D%2230%22%20as%3D%22geometry%22%3E%3CmxRectangle%20width%3D%22210%22%20height%3D%2230%22%20as%3D%22alternateBounds%22%2F%3E%3C%2FmxGeometry%3E%3C%2FmxCell%3E%3CmxCell%20id%3D%226%22%20value%3D%22%22%20style%3D%22shape%3DtableRow%3Bhorizontal%3D0%3BstartSize%3D0%3BswimlaneHead%3D0%3BswimlaneBody%3D0%3BfillColor%3Dnone%3Bcollapsible%3D0%3BdropTarget%3D0%3Bpoints%3D%5B%5B0%2C0.5%5D%2C%5B1%2C0.5%5D%5D%3BportConstraint%3Deastwest%3Btop%3D0%3Bleft%3D0%3Bright%3D0%3Bbottom%3D0%3B%22%20vertex%3D%221%22%20parent%3D%222%22%3E%3CmxGeometry%20y%3D%2260%22%20width%3D%22240%22%20height%3D%2240%22%20as%3D%22geometry%22%2F%3E%3C%2FmxCell%3E%3CmxCell%20id%3D%227%22%20value%3D%22%22%20style%3D%22shape%3DpartialRectangle%3Bconnectable%3D0%3BfillColor%3Dnone%3Btop%3D0%3Bleft%3D0%3Bbottom%3D0%3Bright%3D0%3Beditable%3D1%3Boverflow%3Dhidden%3BwhiteSpace%3Dwrap%3Bhtml%3D1%3B%22%20vertex%3D%221%22%20parent%3D%226%22%3E%3CmxGeometry%20width%3D%2230%22%20height%3D%2240%22%20as%3D%22geometry%22%3E%3CmxRectangle%20width%3D%2230%22%20height%3D%2240%22%20as%3D%22alternateBounds%22%2F%3E%3C%2FmxGeometry%3E%3C%2FmxCell%3E%3CmxCell%20id%3D%228%22%20value%3D%22Apellido(VARCHAR)(15)%22%20style%3D%22shape%3DpartialRectangle%3Bconnectable%3D0%3BfillColor%3Dnone%3Btop%3D0%3Bleft%3D0%3Bbottom%3D0%3Bright%3D0%3Balign%3Dleft%3BspacingLeft%3D6%3Boverflow%3Dhidden%3BwhiteSpace%3Dwrap%3Bhtml%3D1%3B%22%20vertex%3D%221%22%20parent%3D%226%22%3E%3CmxGeometry%20x%3D%2230%22%20width%3D%22210%22%20height%3D%2240%22%20as%3D%22geometry%22%3E%3CmxRectangle%20width%3D%22210%22%20height%3D%2240%22%20as%3D%22alternateBounds%22%2F%3E%3C%2FmxGeometry%3E%3C%2FmxCell%3E%3CmxCell%20id%3D%229%22%20value%3D%22%22%20style%3D%22shape%3DtableRow%3Bhorizontal%3D0%3BstartSize%3D0%3BswimlaneHead%3D0%3BswimlaneBody%3D0%3BfillColor%3Dnone%3Bcollapsible%3D0%3BdropTarget%3D0%3Bpoints%3D%5B%5B0%2C0.5%5D%2C%5B1%2C0.5%5D%5D%3BportConstraint%3Deastwest%3Btop%3D0%3Bleft%3D0%3Bright%3D0%3Bbottom%3D0%3B%22%20vertex%3D%221%22%20parent%3D%222%22%3E%3CmxGeometry%20y%3D%22100%22%20width%3D%22240%22%20height%3D%2230%22%20as%3D%22geometry%22%2F%3E%3C%2FmxCell%3E%3CmxCell%20id%3D%2210%22%20value%3D%22%22%20style%3D%22shape%3DpartialRectangle%3Bconnectable%3D0%3BfillColor%3Dnone%3Btop%3D0%3Bleft%3D0%3Bbottom%3D0%3Bright%3D0%3Beditable%3D1%3Boverflow%3Dhidden%3BwhiteSpace%3Dwrap%3Bhtml%3D1%3B%22%20vertex%3D%221%22%20parent%3D%229%22%3E%3CmxGeometry%20width%3D%2230%22%20height%3D%2230%22%20as%3D%22geometry%22%3E%3CmxRectangle%20width%3D%2230%22%20height%3D%2230%22%20as%3D%22alternateBounds%22%2F%3E%3C%2FmxGeometry%3E%3C%2FmxCell%3E%3CmxCell%20id%3D%2211%22%20value%3D%22Edad(Int)(%22%20style%3D%22shape%3DpartialRectangle%3Bconnectable%3D0%3BfillColor%3Dnone%3Btop%3D0%3Bleft%3D0%3Bbottom%3D0%3Bright%3D0%3Balign%3Dleft%3BspacingLeft%3D6%3Boverflow%3Dhidden%3BwhiteSpace%3Dwrap%3Bhtml%3D1%3B%22%20vertex%3D%221%22%20parent%3D%229%22%3E%3CmxGeometry%20x%3D%2230%22%20width%3D%22210%22%20height%3D%2230%22%20as%3D%22geometry%22%3E%3CmxRectangle%20width%3D%22210%22%20height%3D%2230%22%20as%3D%22alternateBounds%22%2F%3E%3C%2FmxGeometry%3E%3C%2FmxCell%3E%3CmxCell%20id%3D%2212%22%20value%3D%22%22%20style%3D%22shape%3DtableRow%3Bhorizontal%3D0%3BstartSize%3D0%3BswimlaneHead%3D0%3BswimlaneBody%3D0%3BfillColor%3Dnone%3Bcollapsible%3D0%3BdropTarget%3D0%3Bpoints%3D%5B%5B0%2C0.5%5D%2C%5B1%2C0.5%5D%5D%3BportConstraint%3Deastwest%3Btop%3D0%3Bleft%3D0%3Bright%3D0%3Bbottom%3D0%3B%22%20vertex%3D%221%22%20parent%3D%222%22%3E%3CmxGeometry%20y%3D%22130%22%20width%3D%22240%22%20height%3D%2230%22%20as%3D%22geometry%22%2F%3E%3C%2FmxCell%3E%3CmxCell%20id%3D%2213%22%20value%3D%22%22%20style%3D%22shape%3DpartialRectangle%3Bconnectable%3D0%3BfillColor%3Dnone%3Btop%3D0%3Bleft%3D0%3Bbottom%3D0%3Bright%3D0%3Beditable%3D1%3Boverflow%3Dhidden%3BwhiteSpace%3Dwrap%3Bhtml%3D1%3B%22%20vertex%3D%221%22%20parent%3D%2212%22%3E%3CmxGeometry%20width%3D%2230%22%20height%3D%2230%22%20as%3D%22geometry%22%3E%3CmxRectangle%20width%3D%2230%22%20height%3D%2230%22%20as%3D%22alternateBounds%22%2F%3E%3C%2FmxGeometry%3E%3C%2FmxCell%3E%3CmxCell%20id%3D%2214%22%20value%3D%22Numero%20de%20Telefono(Char)(15)%22%20style%3D%22shape%3DpartialRectangle%3Bconnectable%3D0%3BfillColor%3Dnone%3Btop%3D0%3Bleft%3D0%3Bbottom%3D0%3Bright%3D0%3Balign%3Dleft%3BspacingLeft%3D6%3Boverflow%3Dhidden%3BwhiteSpace%3Dwrap%3Bhtml%3D1%3B%22%20vertex%3D%221%22%20parent%3D%2212%22%3E%3CmxGeometry%20x%3D%2230%22%20width%3D%22210%22%20height%3D%2230%22%20as%3D%22geometry%22%3E%3CmxRectangle%20width%3D%22210%22%20height%3D%2230%22%20as%3D%22alternateBounds%22%2F%3E%3C%2FmxGeometry%3E%3C%2FmxCell%3E%3CmxCell%20id%3D%2215%22%20style%3D%22shape%3DtableRow%3Bhorizontal%3D0%3BstartSize%3D0%3BswimlaneHead%3D0%3BswimlaneBody%3D0%3BfillColor%3Dnone%3Bcollapsible%3D0%3BdropTarget%3D0%3Bpoints%3D%5B%5B0%2C0.5%5D%2C%5B1%2C0.5%5D%5D%3BportConstraint%3Deastwest%3Btop%3D0%3Bleft%3D0%3Bright%3D0%3Bbottom%3D0%3B%22%20vertex%3D%221%22%20parent%3D%222%22%3E%3CmxGeometry%20y%3D%22160%22%20width%3D%22240%22%20height%3D%2230%22%20as%3D%22geometry%22%2F%3E%3C%2FmxCell%3E%3CmxCell%20id%3D%2216%22%20style%3D%22shape%3DpartialRectangle%3Bconnectable%3D0%3BfillColor%3Dnone%3Btop%3D0%3Bleft%3D0%3Bbottom%3D0%3Bright%3D0%3Beditable%3D1%3Boverflow%3Dhidden%3BwhiteSpace%3Dwrap%3Bhtml%3D1%3B%22%20vertex%3D%221%22%20parent%3D%2215%22%3E%3CmxGeometry%20width%3D%2230%22%20height%3D%2230%22%20as%3D%22geometry%22%3E%3CmxRectangle%20width%3D%2230%22%20height%3D%2230%22%20as%3D%22alternateBounds%22%2F%3E%3C%2FmxGeometry%3E%3C%2FmxCell%3E%3CmxCell%20id%3D%2217%22%20value%3D%22Direccci%C3%B3n(VARCHAR)(150)%22%20style%3D%22shape%3DpartialRectangle%3Bconnectable%3D0%3BfillColor%3Dnone%3Btop%3D0%3Bleft%3D0%3Bbottom%3D0%3Bright%3D0%3Balign%3Dleft%3BspacingLeft%3D6%3Boverflow%3Dhidden%3BwhiteSpace%3Dwrap%3Bhtml%3D1%3B%22%20vertex%3D%221%22%20parent%3D%2215%22%3E%3CmxGeometry%20x%3D%2230%22%20width%3D%22210%22%20height%3D%2230%22%20as%3D%22geometry%22%3E%3CmxRectangle%20width%3D%22210%22%20height%3D%2230%22%20as%3D%22alternateBounds%22%2F%3E%3C%2FmxGeometry%3E%3C%2FmxCell%3E%3CmxCell%20id%3D%2218%22%20style%3D%22shape%3DtableRow%3Bhorizontal%3D0%3BstartSize%3D0%3BswimlaneHead%3D0%3BswimlaneBody%3D0%3BfillColor%3Dnone%3Bcollapsible%3D0%3BdropTarget%3D0%3Bpoints%3D%5B%5B0%2C0.5%5D%2C%5B1%2C0.5%5D%5D%3BportConstraint%3Deastwest%3Btop%3D0%3Bleft%3D0%3Bright%3D0%3Bbottom%3D0%3B%22%20vertex%3D%221%22%20parent%3D%222%22%3E%3CmxGeometry%20y%3D%22190%22%20width%3D%22240%22%20height%3D%2230%22%20as%3D%22geometry%22%2F%3E%3C%2FmxCell%3E%3CmxCell%20id%3D%2219%22%20style%3D%22shape%3DpartialRectangle%3Bconnectable%3D0%3BfillColor%3Dnone%3Btop%3D0%3Bleft%3D0%3Bbottom%3D0%3Bright%3D0%3Beditable%3D1%3Boverflow%3Dhidden%3BwhiteSpace%3Dwrap%3Bhtml%3D1%3B%22%20vertex%3D%221%22%20parent%3D%2218%22%3E%3CmxGeometry%20width%3D%2230%22%20height%3D%2230%22%20as%3D%22geometry%22%3E%3CmxRectangle%20width%3D%2230%22%20height%3D%2230%22%20as%3D%22alternateBounds%22%2F%3E%3C%2FmxGeometry%3E%3C%2FmxCell%3E%3CmxCell%20id%3D%2220%22%20value%3D%22Historial%20de%20compras(INT%20NULL)%22%20style%3D%22shape%3DpartialRectangle%3Bconnectable%3D0%3BfillColor%3Dnone%3Btop%3D0%3Bleft%3D0%3Bbottom%3D0%3Bright%3D0%3Balign%3Dleft%3BspacingLeft%3D6%3Boverflow%3Dhidden%3BwhiteSpace%3Dwrap%3Bhtml%3D1%3B%22%20vertex%3D%221%22%20parent%3D%2218%22%3E%3CmxGeometry%20x%3D%2230%22%20width%3D%22210%22%20height%3D%2230%22%20as%3D%22geometry%22%3E%3CmxRectangle%20width%3D%22210%22%20height%3D%2230%22%20as%3D%22alternateBounds%22%2F%3E%3C%2FmxGeometry%3E%3C%2FmxCell%3E%3C%2Froot%3E%3C%2FmxGraphModel%3E&lt;/span&gt;" style="ellipse;whiteSpace=wrap;html=1;" parent="1" vertex="1">
                    <mxGeometry x="20" y="720" width="120" height="80" as="geometry"/>
                </mxCell>
                <mxCell id="tdBTmRadGnwO2HK5aVkL-2" value="IVA" style="ellipse;whiteSpace=wrap;html=1;" parent="1" vertex="1">
                    <mxGeometry x="480" y="750" width="120" height="80" as="geometry"/>
                </mxCell>
                <mxCell id="tdBTmRadGnwO2HK5aVkL-3" value="" style="endArrow=none;html=1;rounded=0;exitX=0.996;exitY=0.877;exitDx=0;exitDy=0;exitPerimeter=0;entryX=0;entryY=0.5;entryDx=0;entryDy=0;" parent="1" source="8-n9sg8fZdAQryX5FhUH-3" target="tdBTmRadGnwO2HK5aVkL-2" edge="1">
                    <mxGeometry width="50" height="50" relative="1" as="geometry">
                        <mxPoint x="530" y="750" as="sourcePoint"/>
                        <mxPoint x="580" y="700" as="targetPoint"/>
                    </mxGeometry>
                </mxCell>
                <mxCell id="tdBTmRadGnwO2HK5aVkL-4" value="" style="endArrow=none;html=1;rounded=0;exitX=1;exitY=0.5;exitDx=0;exitDy=0;entryX=0;entryY=0.5;entryDx=0;entryDy=0;" parent="1" source="tdBTmRadGnwO2HK5aVkL-1" target="8-n9sg8fZdAQryX5FhUH-3" edge="1">
                    <mxGeometry width="50" height="50" relative="1" as="geometry">
                        <mxPoint x="530" y="750" as="sourcePoint"/>
                        <mxPoint x="580" y="700" as="targetPoint"/>
                    </mxGeometry>
                </mxCell>
                <mxCell id="r0vq31m24xDdY6tJOIhR-1" value="PRODUCTO" style="rounded=0;whiteSpace=wrap;html=1;" parent="1" vertex="1">
                    <mxGeometry x="950" y="700" width="100" height="60" as="geometry"/>
                </mxCell>
                <mxCell id="r0vq31m24xDdY6tJOIhR-2" value="CODIGO PRODUCTO" style="ellipse;whiteSpace=wrap;html=1;" parent="1" vertex="1">
                    <mxGeometry x="740" y="560" width="120" height="80" as="geometry"/>
                </mxCell>
                <mxCell id="r0vq31m24xDdY6tJOIhR-3" value="CANTIDAD" style="ellipse;whiteSpace=wrap;html=1;" parent="1" vertex="1">
                    <mxGeometry x="850" y="490" width="120" height="80" as="geometry"/>
                </mxCell>
                <mxCell id="r0vq31m24xDdY6tJOIhR-4" value="TIPO" style="ellipse;whiteSpace=wrap;html=1;" parent="1" vertex="1">
                    <mxGeometry x="980" y="500" width="120" height="80" as="geometry"/>
                </mxCell>
                <mxCell id="r0vq31m24xDdY6tJOIhR-5" value="NONBRE DEL PRODUCTO" style="ellipse;whiteSpace=wrap;html=1;" parent="1" vertex="1">
                    <mxGeometry x="1110" y="540" width="120" height="80" as="geometry"/>
                </mxCell>
                <mxCell id="r0vq31m24xDdY6tJOIhR-6" value="CADUCIDAD" style="ellipse;whiteSpace=wrap;html=1;" parent="1" vertex="1">
                    <mxGeometry x="1110" y="630" width="120" height="80" as="geometry"/>
                </mxCell>
                <mxCell id="r0vq31m24xDdY6tJOIhR-7" value="" style="endArrow=none;html=1;rounded=0;exitX=1;exitY=0.25;exitDx=0;exitDy=0;entryX=0.058;entryY=0.809;entryDx=0;entryDy=0;entryPerimeter=0;" parent="1" source="r0vq31m24xDdY6tJOIhR-1" target="r0vq31m24xDdY6tJOIhR-5" edge="1">
                    <mxGeometry width="50" height="50" relative="1" as="geometry">
                        <mxPoint x="1130" y="610" as="sourcePoint"/>
                        <mxPoint x="1100" y="660" as="targetPoint"/>
                    </mxGeometry>
                </mxCell>
                <mxCell id="r0vq31m24xDdY6tJOIhR-8" value="" style="endArrow=none;html=1;rounded=0;exitX=1;exitY=0.75;exitDx=0;exitDy=0;" parent="1" source="r0vq31m24xDdY6tJOIhR-1" edge="1">
                    <mxGeometry width="50" height="50" relative="1" as="geometry">
                        <mxPoint x="1130" y="740" as="sourcePoint"/>
                        <mxPoint x="1110" y="680" as="targetPoint"/>
                    </mxGeometry>
                </mxCell>
                <mxCell id="r0vq31m24xDdY6tJOIhR-9" value="" style="endArrow=none;html=1;rounded=0;exitX=0.5;exitY=0;exitDx=0;exitDy=0;entryX=0.197;entryY=0.976;entryDx=0;entryDy=0;entryPerimeter=0;" parent="1" source="r0vq31m24xDdY6tJOIhR-1" target="r0vq31m24xDdY6tJOIhR-4" edge="1">
                    <mxGeometry width="50" height="50" relative="1" as="geometry">
                        <mxPoint x="1130" y="740" as="sourcePoint"/>
                        <mxPoint x="1180" y="690" as="targetPoint"/>
                    </mxGeometry>
                </mxCell>
                <mxCell id="r0vq31m24xDdY6tJOIhR-10" value="" style="endArrow=none;html=1;rounded=0;exitX=0.572;exitY=1.018;exitDx=0;exitDy=0;exitPerimeter=0;entryX=0.142;entryY=-0.032;entryDx=0;entryDy=0;entryPerimeter=0;" parent="1" source="r0vq31m24xDdY6tJOIhR-3" target="r0vq31m24xDdY6tJOIhR-1" edge="1">
                    <mxGeometry width="50" height="50" relative="1" as="geometry">
                        <mxPoint x="1130" y="740" as="sourcePoint"/>
                        <mxPoint x="1180" y="690" as="targetPoint"/>
                    </mxGeometry>
                </mxCell>
                <mxCell id="r0vq31m24xDdY6tJOIhR-11" value="" style="endArrow=none;html=1;rounded=0;exitX=0;exitY=0.5;exitDx=0;exitDy=0;" parent="1" source="r0vq31m24xDdY6tJOIhR-1" target="r0vq31m24xDdY6tJOIhR-2" edge="1">
                    <mxGeometry width="50" height="50" relative="1" as="geometry">
                        <mxPoint x="1130" y="740" as="sourcePoint"/>
                        <mxPoint x="1180" y="690" as="targetPoint"/>
                        <Array as="points"/>
                    </mxGeometry>
                </mxCell>
            </root>
        </mxGraphModel>
    </diagram>
    <diagram id="aJbz204hOPwkAJC8MJdw" name="Página-2">
        <mxGraphModel dx="768" dy="559" grid="1" gridSize="10" guides="1" tooltips="1" connect="1" arrows="1" fold="1" page="1" pageScale="1" pageWidth="827" pageHeight="1169" math="0" shadow="0">
            <root>
                <mxCell id="0"/>
                <mxCell id="1" parent="0"/>
                <mxCell id="_yiEhRol8RBJIgCZn8np-1" value="FACTURA" style="shape=table;startSize=30;container=1;collapsible=1;childLayout=tableLayout;fixedRows=1;rowLines=0;fontStyle=1;align=center;resizeLast=1;html=1;" parent="1" vertex="1">
                    <mxGeometry x="80" y="380" width="240" height="250" as="geometry"/>
                </mxCell>
                <mxCell id="_yiEhRol8RBJIgCZn8np-2" value="" style="shape=tableRow;horizontal=0;startSize=0;swimlaneHead=0;swimlaneBody=0;fillColor=none;collapsible=0;dropTarget=0;points=[[0,0.5],[1,0.5]];portConstraint=eastwest;top=0;left=0;right=0;bottom=1;" parent="_yiEhRol8RBJIgCZn8np-1" vertex="1">
                    <mxGeometry y="30" width="240" height="30" as="geometry"/>
                </mxCell>
                <mxCell id="_yiEhRol8RBJIgCZn8np-3" value="PK" style="shape=partialRectangle;connectable=0;fillColor=none;top=0;left=0;bottom=0;right=0;fontStyle=1;overflow=hidden;whiteSpace=wrap;html=1;" parent="_yiEhRol8RBJIgCZn8np-2" vertex="1">
                    <mxGeometry width="30" height="30" as="geometry">
                        <mxRectangle width="30" height="30" as="alternateBounds"/>
                    </mxGeometry>
                </mxCell>
                <mxCell id="_yiEhRol8RBJIgCZn8np-4" value="&#10;&lt;span style=&quot;color: rgb(0, 0, 0); font-family: Helvetica; font-size: 12px; font-style: normal; font-variant-ligatures: normal; font-variant-caps: normal; font-weight: 400; letter-spacing: normal; orphans: 2; text-align: left; text-indent: 0px; text-transform: none; widows: 2; word-spacing: 0px; -webkit-text-stroke-width: 0px; white-space: normal; background-color: rgb(251, 251, 251); text-decoration-thickness: initial; text-decoration-style: initial; text-decoration-color: initial; display: inline !important; float: none;&quot;&gt;IDDF(INT)(20)&lt;/span&gt;&#10;&#10;" style="shape=partialRectangle;connectable=0;fillColor=none;top=0;left=0;bottom=0;right=0;align=left;spacingLeft=6;fontStyle=5;overflow=hidden;whiteSpace=wrap;html=1;" parent="_yiEhRol8RBJIgCZn8np-2" vertex="1">
                    <mxGeometry x="30" width="210" height="30" as="geometry">
                        <mxRectangle width="210" height="30" as="alternateBounds"/>
                    </mxGeometry>
                </mxCell>
                <mxCell id="_yiEhRol8RBJIgCZn8np-5" value="" style="shape=tableRow;horizontal=0;startSize=0;swimlaneHead=0;swimlaneBody=0;fillColor=none;collapsible=0;dropTarget=0;points=[[0,0.5],[1,0.5]];portConstraint=eastwest;top=0;left=0;right=0;bottom=0;" parent="_yiEhRol8RBJIgCZn8np-1" vertex="1">
                    <mxGeometry y="60" width="240" height="40" as="geometry"/>
                </mxCell>
                <mxCell id="_yiEhRol8RBJIgCZn8np-6" value="" style="shape=partialRectangle;connectable=0;fillColor=none;top=0;left=0;bottom=0;right=0;editable=1;overflow=hidden;whiteSpace=wrap;html=1;" parent="_yiEhRol8RBJIgCZn8np-5" vertex="1">
                    <mxGeometry width="30" height="40" as="geometry">
                        <mxRectangle width="30" height="40" as="alternateBounds"/>
                    </mxGeometry>
                </mxCell>
                <mxCell id="_yiEhRol8RBJIgCZn8np-7" value="PRECIO(DECIMAL)" style="shape=partialRectangle;connectable=0;fillColor=none;top=0;left=0;bottom=0;right=0;align=left;spacingLeft=6;overflow=hidden;whiteSpace=wrap;html=1;" parent="_yiEhRol8RBJIgCZn8np-5" vertex="1">
                    <mxGeometry x="30" width="210" height="40" as="geometry">
                        <mxRectangle width="210" height="40" as="alternateBounds"/>
                    </mxGeometry>
                </mxCell>
                <mxCell id="_yiEhRol8RBJIgCZn8np-8" value="" style="shape=tableRow;horizontal=0;startSize=0;swimlaneHead=0;swimlaneBody=0;fillColor=none;collapsible=0;dropTarget=0;points=[[0,0.5],[1,0.5]];portConstraint=eastwest;top=0;left=0;right=0;bottom=0;" parent="_yiEhRol8RBJIgCZn8np-1" vertex="1">
                    <mxGeometry y="100" width="240" height="30" as="geometry"/>
                </mxCell>
                <mxCell id="_yiEhRol8RBJIgCZn8np-9" value="" style="shape=partialRectangle;connectable=0;fillColor=none;top=0;left=0;bottom=0;right=0;editable=1;overflow=hidden;whiteSpace=wrap;html=1;" parent="_yiEhRol8RBJIgCZn8np-8" vertex="1">
                    <mxGeometry width="30" height="30" as="geometry">
                        <mxRectangle width="30" height="30" as="alternateBounds"/>
                    </mxGeometry>
                </mxCell>
                <mxCell id="_yiEhRol8RBJIgCZn8np-10" value="RFC(VARCHAR)(25)" style="shape=partialRectangle;connectable=0;fillColor=none;top=0;left=0;bottom=0;right=0;align=left;spacingLeft=6;overflow=hidden;whiteSpace=wrap;html=1;" parent="_yiEhRol8RBJIgCZn8np-8" vertex="1">
                    <mxGeometry x="30" width="210" height="30" as="geometry">
                        <mxRectangle width="210" height="30" as="alternateBounds"/>
                    </mxGeometry>
                </mxCell>
                <mxCell id="_yiEhRol8RBJIgCZn8np-11" value="" style="shape=tableRow;horizontal=0;startSize=0;swimlaneHead=0;swimlaneBody=0;fillColor=none;collapsible=0;dropTarget=0;points=[[0,0.5],[1,0.5]];portConstraint=eastwest;top=0;left=0;right=0;bottom=0;" parent="_yiEhRol8RBJIgCZn8np-1" vertex="1">
                    <mxGeometry y="130" width="240" height="30" as="geometry"/>
                </mxCell>
                <mxCell id="_yiEhRol8RBJIgCZn8np-12" value="" style="shape=partialRectangle;connectable=0;fillColor=none;top=0;left=0;bottom=0;right=0;editable=1;overflow=hidden;whiteSpace=wrap;html=1;" parent="_yiEhRol8RBJIgCZn8np-11" vertex="1">
                    <mxGeometry width="30" height="30" as="geometry">
                        <mxRectangle width="30" height="30" as="alternateBounds"/>
                    </mxGeometry>
                </mxCell>
                <mxCell id="_yiEhRol8RBJIgCZn8np-13" value="" style="shape=partialRectangle;connectable=0;fillColor=none;top=0;left=0;bottom=0;right=0;align=left;spacingLeft=6;overflow=hidden;whiteSpace=wrap;html=1;" parent="_yiEhRol8RBJIgCZn8np-11" vertex="1">
                    <mxGeometry x="30" width="210" height="30" as="geometry">
                        <mxRectangle width="210" height="30" as="alternateBounds"/>
                    </mxGeometry>
                </mxCell>
                <mxCell id="Dpy0HKLVwdnMuDh7ikny-4" style="shape=tableRow;horizontal=0;startSize=0;swimlaneHead=0;swimlaneBody=0;fillColor=none;collapsible=0;dropTarget=0;points=[[0,0.5],[1,0.5]];portConstraint=eastwest;top=0;left=0;right=0;bottom=0;" parent="_yiEhRol8RBJIgCZn8np-1" vertex="1">
                    <mxGeometry y="160" width="240" height="30" as="geometry"/>
                </mxCell>
                <mxCell id="Dpy0HKLVwdnMuDh7ikny-5" style="shape=partialRectangle;connectable=0;fillColor=none;top=0;left=0;bottom=0;right=0;editable=1;overflow=hidden;whiteSpace=wrap;html=1;" parent="Dpy0HKLVwdnMuDh7ikny-4" vertex="1">
                    <mxGeometry width="30" height="30" as="geometry">
                        <mxRectangle width="30" height="30" as="alternateBounds"/>
                    </mxGeometry>
                </mxCell>
                <mxCell id="Dpy0HKLVwdnMuDh7ikny-6" value="FECHA(DATE" style="shape=partialRectangle;connectable=0;fillColor=none;top=0;left=0;bottom=0;right=0;align=left;spacingLeft=6;overflow=hidden;whiteSpace=wrap;html=1;" parent="Dpy0HKLVwdnMuDh7ikny-4" vertex="1">
                    <mxGeometry x="30" width="210" height="30" as="geometry">
                        <mxRectangle width="210" height="30" as="alternateBounds"/>
                    </mxGeometry>
                </mxCell>
                <mxCell id="ImLvx2GzVETx2Ealagbk-1" style="shape=tableRow;horizontal=0;startSize=0;swimlaneHead=0;swimlaneBody=0;fillColor=none;collapsible=0;dropTarget=0;points=[[0,0.5],[1,0.5]];portConstraint=eastwest;top=0;left=0;right=0;bottom=0;" parent="_yiEhRol8RBJIgCZn8np-1" vertex="1">
                    <mxGeometry y="190" width="240" height="30" as="geometry"/>
                </mxCell>
                <mxCell id="ImLvx2GzVETx2Ealagbk-2" style="shape=partialRectangle;connectable=0;fillColor=none;top=0;left=0;bottom=0;right=0;editable=1;overflow=hidden;whiteSpace=wrap;html=1;" parent="ImLvx2GzVETx2Ealagbk-1" vertex="1">
                    <mxGeometry width="30" height="30" as="geometry">
                        <mxRectangle width="30" height="30" as="alternateBounds"/>
                    </mxGeometry>
                </mxCell>
                <mxCell id="ImLvx2GzVETx2Ealagbk-3" value="&lt;div&gt;&lt;br&gt;&lt;/div&gt;" style="shape=partialRectangle;connectable=0;fillColor=none;top=0;left=0;bottom=0;right=0;align=left;spacingLeft=6;overflow=hidden;whiteSpace=wrap;html=1;" parent="ImLvx2GzVETx2Ealagbk-1" vertex="1">
                    <mxGeometry x="30" width="210" height="30" as="geometry">
                        <mxRectangle width="210" height="30" as="alternateBounds"/>
                    </mxGeometry>
                </mxCell>
                <mxCell id="ZlWzn_1Lv1OnR0v2FAoi-1" value="PROVEDOR" style="shape=table;startSize=30;container=1;collapsible=1;childLayout=tableLayout;fixedRows=1;rowLines=0;fontStyle=1;align=center;resizeLast=1;html=1;" parent="1" vertex="1">
                    <mxGeometry x="400" y="120" width="240" height="220" as="geometry"/>
                </mxCell>
                <mxCell id="ZlWzn_1Lv1OnR0v2FAoi-2" value="" style="shape=tableRow;horizontal=0;startSize=0;swimlaneHead=0;swimlaneBody=0;fillColor=none;collapsible=0;dropTarget=0;points=[[0,0.5],[1,0.5]];portConstraint=eastwest;top=0;left=0;right=0;bottom=1;" parent="ZlWzn_1Lv1OnR0v2FAoi-1" vertex="1">
                    <mxGeometry y="30" width="240" height="30" as="geometry"/>
                </mxCell>
                <mxCell id="ZlWzn_1Lv1OnR0v2FAoi-3" value="PK" style="shape=partialRectangle;connectable=0;fillColor=none;top=0;left=0;bottom=0;right=0;fontStyle=1;overflow=hidden;whiteSpace=wrap;html=1;" parent="ZlWzn_1Lv1OnR0v2FAoi-2" vertex="1">
                    <mxGeometry width="30" height="30" as="geometry">
                        <mxRectangle width="30" height="30" as="alternateBounds"/>
                    </mxGeometry>
                </mxCell>
                <mxCell id="ZlWzn_1Lv1OnR0v2FAoi-4" value="CODIGO DE PROVEDOR" style="shape=partialRectangle;connectable=0;fillColor=none;top=0;left=0;bottom=0;right=0;align=left;spacingLeft=6;fontStyle=5;overflow=hidden;whiteSpace=wrap;html=1;" parent="ZlWzn_1Lv1OnR0v2FAoi-2" vertex="1">
                    <mxGeometry x="30" width="210" height="30" as="geometry">
                        <mxRectangle width="210" height="30" as="alternateBounds"/>
                    </mxGeometry>
                </mxCell>
                <mxCell id="ZlWzn_1Lv1OnR0v2FAoi-5" value="" style="shape=tableRow;horizontal=0;startSize=0;swimlaneHead=0;swimlaneBody=0;fillColor=none;collapsible=0;dropTarget=0;points=[[0,0.5],[1,0.5]];portConstraint=eastwest;top=0;left=0;right=0;bottom=0;" parent="ZlWzn_1Lv1OnR0v2FAoi-1" vertex="1">
                    <mxGeometry y="60" width="240" height="40" as="geometry"/>
                </mxCell>
                <mxCell id="ZlWzn_1Lv1OnR0v2FAoi-6" value="" style="shape=partialRectangle;connectable=0;fillColor=none;top=0;left=0;bottom=0;right=0;editable=1;overflow=hidden;whiteSpace=wrap;html=1;" parent="ZlWzn_1Lv1OnR0v2FAoi-5" vertex="1">
                    <mxGeometry width="30" height="40" as="geometry">
                        <mxRectangle width="30" height="40" as="alternateBounds"/>
                    </mxGeometry>
                </mxCell>
                <mxCell id="ZlWzn_1Lv1OnR0v2FAoi-7" value="Apellido(VARCHAR)(15)" style="shape=partialRectangle;connectable=0;fillColor=none;top=0;left=0;bottom=0;right=0;align=left;spacingLeft=6;overflow=hidden;whiteSpace=wrap;html=1;" parent="ZlWzn_1Lv1OnR0v2FAoi-5" vertex="1">
                    <mxGeometry x="30" width="210" height="40" as="geometry">
                        <mxRectangle width="210" height="40" as="alternateBounds"/>
                    </mxGeometry>
                </mxCell>
                <mxCell id="ZlWzn_1Lv1OnR0v2FAoi-8" value="" style="shape=tableRow;horizontal=0;startSize=0;swimlaneHead=0;swimlaneBody=0;fillColor=none;collapsible=0;dropTarget=0;points=[[0,0.5],[1,0.5]];portConstraint=eastwest;top=0;left=0;right=0;bottom=0;" parent="ZlWzn_1Lv1OnR0v2FAoi-1" vertex="1">
                    <mxGeometry y="100" width="240" height="30" as="geometry"/>
                </mxCell>
                <mxCell id="ZlWzn_1Lv1OnR0v2FAoi-9" value="" style="shape=partialRectangle;connectable=0;fillColor=none;top=0;left=0;bottom=0;right=0;editable=1;overflow=hidden;whiteSpace=wrap;html=1;" parent="ZlWzn_1Lv1OnR0v2FAoi-8" vertex="1">
                    <mxGeometry width="30" height="30" as="geometry">
                        <mxRectangle width="30" height="30" as="alternateBounds"/>
                    </mxGeometry>
                </mxCell>
                <mxCell id="ZlWzn_1Lv1OnR0v2FAoi-10" value="Edad(Int)(" style="shape=partialRectangle;connectable=0;fillColor=none;top=0;left=0;bottom=0;right=0;align=left;spacingLeft=6;overflow=hidden;whiteSpace=wrap;html=1;" parent="ZlWzn_1Lv1OnR0v2FAoi-8" vertex="1">
                    <mxGeometry x="30" width="210" height="30" as="geometry">
                        <mxRectangle width="210" height="30" as="alternateBounds"/>
                    </mxGeometry>
                </mxCell>
                <mxCell id="ZlWzn_1Lv1OnR0v2FAoi-11" value="" style="shape=tableRow;horizontal=0;startSize=0;swimlaneHead=0;swimlaneBody=0;fillColor=none;collapsible=0;dropTarget=0;points=[[0,0.5],[1,0.5]];portConstraint=eastwest;top=0;left=0;right=0;bottom=0;" parent="ZlWzn_1Lv1OnR0v2FAoi-1" vertex="1">
                    <mxGeometry y="130" width="240" height="30" as="geometry"/>
                </mxCell>
                <mxCell id="ZlWzn_1Lv1OnR0v2FAoi-12" value="" style="shape=partialRectangle;connectable=0;fillColor=none;top=0;left=0;bottom=0;right=0;editable=1;overflow=hidden;whiteSpace=wrap;html=1;" parent="ZlWzn_1Lv1OnR0v2FAoi-11" vertex="1">
                    <mxGeometry width="30" height="30" as="geometry">
                        <mxRectangle width="30" height="30" as="alternateBounds"/>
                    </mxGeometry>
                </mxCell>
                <mxCell id="ZlWzn_1Lv1OnR0v2FAoi-13" value="Numero de Telefono(Char)(15)" style="shape=partialRectangle;connectable=0;fillColor=none;top=0;left=0;bottom=0;right=0;align=left;spacingLeft=6;overflow=hidden;whiteSpace=wrap;html=1;" parent="ZlWzn_1Lv1OnR0v2FAoi-11" vertex="1">
                    <mxGeometry x="30" width="210" height="30" as="geometry">
                        <mxRectangle width="210" height="30" as="alternateBounds"/>
                    </mxGeometry>
                </mxCell>
                <mxCell id="ZlWzn_1Lv1OnR0v2FAoi-14" style="shape=tableRow;horizontal=0;startSize=0;swimlaneHead=0;swimlaneBody=0;fillColor=none;collapsible=0;dropTarget=0;points=[[0,0.5],[1,0.5]];portConstraint=eastwest;top=0;left=0;right=0;bottom=0;" parent="ZlWzn_1Lv1OnR0v2FAoi-1" vertex="1">
                    <mxGeometry y="160" width="240" height="30" as="geometry"/>
                </mxCell>
                <mxCell id="ZlWzn_1Lv1OnR0v2FAoi-15" style="shape=partialRectangle;connectable=0;fillColor=none;top=0;left=0;bottom=0;right=0;editable=1;overflow=hidden;whiteSpace=wrap;html=1;" parent="ZlWzn_1Lv1OnR0v2FAoi-14" vertex="1">
                    <mxGeometry width="30" height="30" as="geometry">
                        <mxRectangle width="30" height="30" as="alternateBounds"/>
                    </mxGeometry>
                </mxCell>
                <mxCell id="ZlWzn_1Lv1OnR0v2FAoi-16" value="Direccción(VARCHAR)(150)" style="shape=partialRectangle;connectable=0;fillColor=none;top=0;left=0;bottom=0;right=0;align=left;spacingLeft=6;overflow=hidden;whiteSpace=wrap;html=1;" parent="ZlWzn_1Lv1OnR0v2FAoi-14" vertex="1">
                    <mxGeometry x="30" width="210" height="30" as="geometry">
                        <mxRectangle width="210" height="30" as="alternateBounds"/>
                    </mxGeometry>
                </mxCell>
                <mxCell id="ZlWzn_1Lv1OnR0v2FAoi-17" style="shape=tableRow;horizontal=0;startSize=0;swimlaneHead=0;swimlaneBody=0;fillColor=none;collapsible=0;dropTarget=0;points=[[0,0.5],[1,0.5]];portConstraint=eastwest;top=0;left=0;right=0;bottom=0;" parent="ZlWzn_1Lv1OnR0v2FAoi-1" vertex="1">
                    <mxGeometry y="190" width="240" height="30" as="geometry"/>
                </mxCell>
                <mxCell id="ZlWzn_1Lv1OnR0v2FAoi-18" style="shape=partialRectangle;connectable=0;fillColor=none;top=0;left=0;bottom=0;right=0;editable=1;overflow=hidden;whiteSpace=wrap;html=1;" parent="ZlWzn_1Lv1OnR0v2FAoi-17" vertex="1">
                    <mxGeometry width="30" height="30" as="geometry">
                        <mxRectangle width="30" height="30" as="alternateBounds"/>
                    </mxGeometry>
                </mxCell>
                <mxCell id="ZlWzn_1Lv1OnR0v2FAoi-19" value="Correo(INT NULL)" style="shape=partialRectangle;connectable=0;fillColor=none;top=0;left=0;bottom=0;right=0;align=left;spacingLeft=6;overflow=hidden;whiteSpace=wrap;html=1;" parent="ZlWzn_1Lv1OnR0v2FAoi-17" vertex="1">
                    <mxGeometry x="30" width="210" height="30" as="geometry">
                        <mxRectangle width="210" height="30" as="alternateBounds"/>
                    </mxGeometry>
                </mxCell>
                <mxCell id="Hh2Ufa-0gwu2Do368W7c-1" value="CLIENTE" style="shape=table;startSize=30;container=1;collapsible=1;childLayout=tableLayout;fixedRows=1;rowLines=0;fontStyle=1;align=center;resizeLast=1;html=1;" parent="1" vertex="1">
                    <mxGeometry x="90" y="130" width="240" height="220" as="geometry"/>
                </mxCell>
                <mxCell id="Hh2Ufa-0gwu2Do368W7c-2" value="" style="shape=tableRow;horizontal=0;startSize=0;swimlaneHead=0;swimlaneBody=0;fillColor=none;collapsible=0;dropTarget=0;points=[[0,0.5],[1,0.5]];portConstraint=eastwest;top=0;left=0;right=0;bottom=1;" parent="Hh2Ufa-0gwu2Do368W7c-1" vertex="1">
                    <mxGeometry y="30" width="240" height="30" as="geometry"/>
                </mxCell>
                <mxCell id="Hh2Ufa-0gwu2Do368W7c-3" value="PK" style="shape=partialRectangle;connectable=0;fillColor=none;top=0;left=0;bottom=0;right=0;fontStyle=1;overflow=hidden;whiteSpace=wrap;html=1;" parent="Hh2Ufa-0gwu2Do368W7c-2" vertex="1">
                    <mxGeometry width="30" height="30" as="geometry">
                        <mxRectangle width="30" height="30" as="alternateBounds"/>
                    </mxGeometry>
                </mxCell>
                <mxCell id="Hh2Ufa-0gwu2Do368W7c-4" value="IDE CLIENTE" style="shape=partialRectangle;connectable=0;fillColor=none;top=0;left=0;bottom=0;right=0;align=left;spacingLeft=6;fontStyle=5;overflow=hidden;whiteSpace=wrap;html=1;" parent="Hh2Ufa-0gwu2Do368W7c-2" vertex="1">
                    <mxGeometry x="30" width="210" height="30" as="geometry">
                        <mxRectangle width="210" height="30" as="alternateBounds"/>
                    </mxGeometry>
                </mxCell>
                <mxCell id="Hh2Ufa-0gwu2Do368W7c-5" value="" style="shape=tableRow;horizontal=0;startSize=0;swimlaneHead=0;swimlaneBody=0;fillColor=none;collapsible=0;dropTarget=0;points=[[0,0.5],[1,0.5]];portConstraint=eastwest;top=0;left=0;right=0;bottom=0;" parent="Hh2Ufa-0gwu2Do368W7c-1" vertex="1">
                    <mxGeometry y="60" width="240" height="40" as="geometry"/>
                </mxCell>
                <mxCell id="Hh2Ufa-0gwu2Do368W7c-6" value="" style="shape=partialRectangle;connectable=0;fillColor=none;top=0;left=0;bottom=0;right=0;editable=1;overflow=hidden;whiteSpace=wrap;html=1;" parent="Hh2Ufa-0gwu2Do368W7c-5" vertex="1">
                    <mxGeometry width="30" height="40" as="geometry">
                        <mxRectangle width="30" height="40" as="alternateBounds"/>
                    </mxGeometry>
                </mxCell>
                <mxCell id="Hh2Ufa-0gwu2Do368W7c-7" value="Apellido(VARCHAR)(15)" style="shape=partialRectangle;connectable=0;fillColor=none;top=0;left=0;bottom=0;right=0;align=left;spacingLeft=6;overflow=hidden;whiteSpace=wrap;html=1;" parent="Hh2Ufa-0gwu2Do368W7c-5" vertex="1">
                    <mxGeometry x="30" width="210" height="40" as="geometry">
                        <mxRectangle width="210" height="40" as="alternateBounds"/>
                    </mxGeometry>
                </mxCell>
                <mxCell id="Hh2Ufa-0gwu2Do368W7c-8" value="" style="shape=tableRow;horizontal=0;startSize=0;swimlaneHead=0;swimlaneBody=0;fillColor=none;collapsible=0;dropTarget=0;points=[[0,0.5],[1,0.5]];portConstraint=eastwest;top=0;left=0;right=0;bottom=0;" parent="Hh2Ufa-0gwu2Do368W7c-1" vertex="1">
                    <mxGeometry y="100" width="240" height="30" as="geometry"/>
                </mxCell>
                <mxCell id="Hh2Ufa-0gwu2Do368W7c-9" value="" style="shape=partialRectangle;connectable=0;fillColor=none;top=0;left=0;bottom=0;right=0;editable=1;overflow=hidden;whiteSpace=wrap;html=1;" parent="Hh2Ufa-0gwu2Do368W7c-8" vertex="1">
                    <mxGeometry width="30" height="30" as="geometry">
                        <mxRectangle width="30" height="30" as="alternateBounds"/>
                    </mxGeometry>
                </mxCell>
                <mxCell id="Hh2Ufa-0gwu2Do368W7c-10" value="Edad(Int)(" style="shape=partialRectangle;connectable=0;fillColor=none;top=0;left=0;bottom=0;right=0;align=left;spacingLeft=6;overflow=hidden;whiteSpace=wrap;html=1;" parent="Hh2Ufa-0gwu2Do368W7c-8" vertex="1">
                    <mxGeometry x="30" width="210" height="30" as="geometry">
                        <mxRectangle width="210" height="30" as="alternateBounds"/>
                    </mxGeometry>
                </mxCell>
                <mxCell id="Hh2Ufa-0gwu2Do368W7c-11" value="" style="shape=tableRow;horizontal=0;startSize=0;swimlaneHead=0;swimlaneBody=0;fillColor=none;collapsible=0;dropTarget=0;points=[[0,0.5],[1,0.5]];portConstraint=eastwest;top=0;left=0;right=0;bottom=0;" parent="Hh2Ufa-0gwu2Do368W7c-1" vertex="1">
                    <mxGeometry y="130" width="240" height="30" as="geometry"/>
                </mxCell>
                <mxCell id="Hh2Ufa-0gwu2Do368W7c-12" value="" style="shape=partialRectangle;connectable=0;fillColor=none;top=0;left=0;bottom=0;right=0;editable=1;overflow=hidden;whiteSpace=wrap;html=1;" parent="Hh2Ufa-0gwu2Do368W7c-11" vertex="1">
                    <mxGeometry width="30" height="30" as="geometry">
                        <mxRectangle width="30" height="30" as="alternateBounds"/>
                    </mxGeometry>
                </mxCell>
                <mxCell id="Hh2Ufa-0gwu2Do368W7c-13" value="Numero de Telefono(Char)(15)" style="shape=partialRectangle;connectable=0;fillColor=none;top=0;left=0;bottom=0;right=0;align=left;spacingLeft=6;overflow=hidden;whiteSpace=wrap;html=1;" parent="Hh2Ufa-0gwu2Do368W7c-11" vertex="1">
                    <mxGeometry x="30" width="210" height="30" as="geometry">
                        <mxRectangle width="210" height="30" as="alternateBounds"/>
                    </mxGeometry>
                </mxCell>
                <mxCell id="Hh2Ufa-0gwu2Do368W7c-14" style="shape=tableRow;horizontal=0;startSize=0;swimlaneHead=0;swimlaneBody=0;fillColor=none;collapsible=0;dropTarget=0;points=[[0,0.5],[1,0.5]];portConstraint=eastwest;top=0;left=0;right=0;bottom=0;" parent="Hh2Ufa-0gwu2Do368W7c-1" vertex="1">
                    <mxGeometry y="160" width="240" height="30" as="geometry"/>
                </mxCell>
                <mxCell id="Hh2Ufa-0gwu2Do368W7c-15" style="shape=partialRectangle;connectable=0;fillColor=none;top=0;left=0;bottom=0;right=0;editable=1;overflow=hidden;whiteSpace=wrap;html=1;" parent="Hh2Ufa-0gwu2Do368W7c-14" vertex="1">
                    <mxGeometry width="30" height="30" as="geometry">
                        <mxRectangle width="30" height="30" as="alternateBounds"/>
                    </mxGeometry>
                </mxCell>
                <mxCell id="Hh2Ufa-0gwu2Do368W7c-16" value="Direccción(VARCHAR)(150)" style="shape=partialRectangle;connectable=0;fillColor=none;top=0;left=0;bottom=0;right=0;align=left;spacingLeft=6;overflow=hidden;whiteSpace=wrap;html=1;" parent="Hh2Ufa-0gwu2Do368W7c-14" vertex="1">
                    <mxGeometry x="30" width="210" height="30" as="geometry">
                        <mxRectangle width="210" height="30" as="alternateBounds"/>
                    </mxGeometry>
                </mxCell>
                <mxCell id="Hh2Ufa-0gwu2Do368W7c-17" style="shape=tableRow;horizontal=0;startSize=0;swimlaneHead=0;swimlaneBody=0;fillColor=none;collapsible=0;dropTarget=0;points=[[0,0.5],[1,0.5]];portConstraint=eastwest;top=0;left=0;right=0;bottom=0;" parent="Hh2Ufa-0gwu2Do368W7c-1" vertex="1">
                    <mxGeometry y="190" width="240" height="30" as="geometry"/>
                </mxCell>
                <mxCell id="Hh2Ufa-0gwu2Do368W7c-18" style="shape=partialRectangle;connectable=0;fillColor=none;top=0;left=0;bottom=0;right=0;editable=1;overflow=hidden;whiteSpace=wrap;html=1;" parent="Hh2Ufa-0gwu2Do368W7c-17" vertex="1">
                    <mxGeometry width="30" height="30" as="geometry">
                        <mxRectangle width="30" height="30" as="alternateBounds"/>
                    </mxGeometry>
                </mxCell>
                <mxCell id="Hh2Ufa-0gwu2Do368W7c-19" value="" style="shape=partialRectangle;connectable=0;fillColor=none;top=0;left=0;bottom=0;right=0;align=left;spacingLeft=6;overflow=hidden;whiteSpace=wrap;html=1;" parent="Hh2Ufa-0gwu2Do368W7c-17" vertex="1">
                    <mxGeometry x="30" width="210" height="30" as="geometry">
                        <mxRectangle width="210" height="30" as="alternateBounds"/>
                    </mxGeometry>
                </mxCell>
                <mxCell id="xkS0eyyFf0SM6XsAoGBG-1" value="&lt;div&gt;Iva INT(3)&lt;/div&gt;" style="shape=partialRectangle;connectable=0;fillColor=none;top=0;left=0;bottom=0;right=0;align=left;spacingLeft=6;overflow=hidden;whiteSpace=wrap;html=1;" parent="1" vertex="1">
                    <mxGeometry x="110" y="570" width="210" height="30" as="geometry">
                        <mxRectangle width="210" height="30" as="alternateBounds"/>
                    </mxGeometry>
                </mxCell>
                <mxCell id="xkS0eyyFf0SM6XsAoGBG-2" value="PRODUCTO" style="shape=table;startSize=30;container=1;collapsible=1;childLayout=tableLayout;fixedRows=1;rowLines=0;fontStyle=1;align=center;resizeLast=1;html=1;" parent="1" vertex="1">
                    <mxGeometry x="415" y="380" width="240" height="250" as="geometry"/>
                </mxCell>
                <mxCell id="xkS0eyyFf0SM6XsAoGBG-3" value="" style="shape=tableRow;horizontal=0;startSize=0;swimlaneHead=0;swimlaneBody=0;fillColor=none;collapsible=0;dropTarget=0;points=[[0,0.5],[1,0.5]];portConstraint=eastwest;top=0;left=0;right=0;bottom=1;" parent="xkS0eyyFf0SM6XsAoGBG-2" vertex="1">
                    <mxGeometry y="30" width="240" height="30" as="geometry"/>
                </mxCell>
                <mxCell id="xkS0eyyFf0SM6XsAoGBG-4" value="PK" style="shape=partialRectangle;connectable=0;fillColor=none;top=0;left=0;bottom=0;right=0;fontStyle=1;overflow=hidden;whiteSpace=wrap;html=1;" parent="xkS0eyyFf0SM6XsAoGBG-3" vertex="1">
                    <mxGeometry width="30" height="30" as="geometry">
                        <mxRectangle width="30" height="30" as="alternateBounds"/>
                    </mxGeometry>
                </mxCell>
                <mxCell id="xkS0eyyFf0SM6XsAoGBG-5" value="CODIGO" style="shape=partialRectangle;connectable=0;fillColor=none;top=0;left=0;bottom=0;right=0;align=left;spacingLeft=6;fontStyle=5;overflow=hidden;whiteSpace=wrap;html=1;" parent="xkS0eyyFf0SM6XsAoGBG-3" vertex="1">
                    <mxGeometry x="30" width="210" height="30" as="geometry">
                        <mxRectangle width="210" height="30" as="alternateBounds"/>
                    </mxGeometry>
                </mxCell>
                <mxCell id="xkS0eyyFf0SM6XsAoGBG-6" value="" style="shape=tableRow;horizontal=0;startSize=0;swimlaneHead=0;swimlaneBody=0;fillColor=none;collapsible=0;dropTarget=0;points=[[0,0.5],[1,0.5]];portConstraint=eastwest;top=0;left=0;right=0;bottom=0;" parent="xkS0eyyFf0SM6XsAoGBG-2" vertex="1">
                    <mxGeometry y="60" width="240" height="40" as="geometry"/>
                </mxCell>
                <mxCell id="xkS0eyyFf0SM6XsAoGBG-7" value="" style="shape=partialRectangle;connectable=0;fillColor=none;top=0;left=0;bottom=0;right=0;editable=1;overflow=hidden;whiteSpace=wrap;html=1;" parent="xkS0eyyFf0SM6XsAoGBG-6" vertex="1">
                    <mxGeometry width="30" height="40" as="geometry">
                        <mxRectangle width="30" height="40" as="alternateBounds"/>
                    </mxGeometry>
                </mxCell>
                <mxCell id="xkS0eyyFf0SM6XsAoGBG-8" value="" style="shape=partialRectangle;connectable=0;fillColor=none;top=0;left=0;bottom=0;right=0;align=left;spacingLeft=6;overflow=hidden;whiteSpace=wrap;html=1;" parent="xkS0eyyFf0SM6XsAoGBG-6" vertex="1">
                    <mxGeometry x="30" width="210" height="40" as="geometry">
                        <mxRectangle width="210" height="40" as="alternateBounds"/>
                    </mxGeometry>
                </mxCell>
                <mxCell id="xkS0eyyFf0SM6XsAoGBG-9" value="" style="shape=tableRow;horizontal=0;startSize=0;swimlaneHead=0;swimlaneBody=0;fillColor=none;collapsible=0;dropTarget=0;points=[[0,0.5],[1,0.5]];portConstraint=eastwest;top=0;left=0;right=0;bottom=0;" parent="xkS0eyyFf0SM6XsAoGBG-2" vertex="1">
                    <mxGeometry y="100" width="240" height="30" as="geometry"/>
                </mxCell>
                <mxCell id="xkS0eyyFf0SM6XsAoGBG-10" value="" style="shape=partialRectangle;connectable=0;fillColor=none;top=0;left=0;bottom=0;right=0;editable=1;overflow=hidden;whiteSpace=wrap;html=1;" parent="xkS0eyyFf0SM6XsAoGBG-9" vertex="1">
                    <mxGeometry width="30" height="30" as="geometry">
                        <mxRectangle width="30" height="30" as="alternateBounds"/>
                    </mxGeometry>
                </mxCell>
                <mxCell id="xkS0eyyFf0SM6XsAoGBG-11" value="CANTIDAD INT(89)" style="shape=partialRectangle;connectable=0;fillColor=none;top=0;left=0;bottom=0;right=0;align=left;spacingLeft=6;overflow=hidden;whiteSpace=wrap;html=1;" parent="xkS0eyyFf0SM6XsAoGBG-9" vertex="1">
                    <mxGeometry x="30" width="210" height="30" as="geometry">
                        <mxRectangle width="210" height="30" as="alternateBounds"/>
                    </mxGeometry>
                </mxCell>
                <mxCell id="xkS0eyyFf0SM6XsAoGBG-12" value="" style="shape=tableRow;horizontal=0;startSize=0;swimlaneHead=0;swimlaneBody=0;fillColor=none;collapsible=0;dropTarget=0;points=[[0,0.5],[1,0.5]];portConstraint=eastwest;top=0;left=0;right=0;bottom=0;" parent="xkS0eyyFf0SM6XsAoGBG-2" vertex="1">
                    <mxGeometry y="130" width="240" height="30" as="geometry"/>
                </mxCell>
                <mxCell id="xkS0eyyFf0SM6XsAoGBG-13" value="" style="shape=partialRectangle;connectable=0;fillColor=none;top=0;left=0;bottom=0;right=0;editable=1;overflow=hidden;whiteSpace=wrap;html=1;" parent="xkS0eyyFf0SM6XsAoGBG-12" vertex="1">
                    <mxGeometry width="30" height="30" as="geometry">
                        <mxRectangle width="30" height="30" as="alternateBounds"/>
                    </mxGeometry>
                </mxCell>
                <mxCell id="xkS0eyyFf0SM6XsAoGBG-14" value="TIPO DE PRODUCTO VARCHAR(150)" style="shape=partialRectangle;connectable=0;fillColor=none;top=0;left=0;bottom=0;right=0;align=left;spacingLeft=6;overflow=hidden;whiteSpace=wrap;html=1;" parent="xkS0eyyFf0SM6XsAoGBG-12" vertex="1">
                    <mxGeometry x="30" width="210" height="30" as="geometry">
                        <mxRectangle width="210" height="30" as="alternateBounds"/>
                    </mxGeometry>
                </mxCell>
                <mxCell id="xkS0eyyFf0SM6XsAoGBG-15" style="shape=tableRow;horizontal=0;startSize=0;swimlaneHead=0;swimlaneBody=0;fillColor=none;collapsible=0;dropTarget=0;points=[[0,0.5],[1,0.5]];portConstraint=eastwest;top=0;left=0;right=0;bottom=0;" parent="xkS0eyyFf0SM6XsAoGBG-2" vertex="1">
                    <mxGeometry y="160" width="240" height="30" as="geometry"/>
                </mxCell>
                <mxCell id="xkS0eyyFf0SM6XsAoGBG-16" style="shape=partialRectangle;connectable=0;fillColor=none;top=0;left=0;bottom=0;right=0;editable=1;overflow=hidden;whiteSpace=wrap;html=1;" parent="xkS0eyyFf0SM6XsAoGBG-15" vertex="1">
                    <mxGeometry width="30" height="30" as="geometry">
                        <mxRectangle width="30" height="30" as="alternateBounds"/>
                    </mxGeometry>
                </mxCell>
                <mxCell id="xkS0eyyFf0SM6XsAoGBG-17" value="NOMBRE DEL PRODUCTO VARCHAR (100)" style="shape=partialRectangle;connectable=0;fillColor=none;top=0;left=0;bottom=0;right=0;align=left;spacingLeft=6;overflow=hidden;whiteSpace=wrap;html=1;" parent="xkS0eyyFf0SM6XsAoGBG-15" vertex="1">
                    <mxGeometry x="30" width="210" height="30" as="geometry">
                        <mxRectangle width="210" height="30" as="alternateBounds"/>
                    </mxGeometry>
                </mxCell>
                <mxCell id="xkS0eyyFf0SM6XsAoGBG-18" style="shape=tableRow;horizontal=0;startSize=0;swimlaneHead=0;swimlaneBody=0;fillColor=none;collapsible=0;dropTarget=0;points=[[0,0.5],[1,0.5]];portConstraint=eastwest;top=0;left=0;right=0;bottom=0;" parent="xkS0eyyFf0SM6XsAoGBG-2" vertex="1">
                    <mxGeometry y="190" width="240" height="30" as="geometry"/>
                </mxCell>
                <mxCell id="xkS0eyyFf0SM6XsAoGBG-19" style="shape=partialRectangle;connectable=0;fillColor=none;top=0;left=0;bottom=0;right=0;editable=1;overflow=hidden;whiteSpace=wrap;html=1;" parent="xkS0eyyFf0SM6XsAoGBG-18" vertex="1">
                    <mxGeometry width="30" height="30" as="geometry">
                        <mxRectangle width="30" height="30" as="alternateBounds"/>
                    </mxGeometry>
                </mxCell>
                <mxCell id="xkS0eyyFf0SM6XsAoGBG-20" value="CADUCIDAD DATE" style="shape=partialRectangle;connectable=0;fillColor=none;top=0;left=0;bottom=0;right=0;align=left;spacingLeft=6;overflow=hidden;whiteSpace=wrap;html=1;" parent="xkS0eyyFf0SM6XsAoGBG-18" vertex="1">
                    <mxGeometry x="30" width="210" height="30" as="geometry">
                        <mxRectangle width="210" height="30" as="alternateBounds"/>
                    </mxGeometry>
                </mxCell>
                <mxCell id="k1iuGjt4R88vdQwVSWPt-2" value="" style="edgeStyle=entityRelationEdgeStyle;fontSize=12;html=1;endArrow=ERzeroToMany;endFill=1;rounded=0;" parent="1" edge="1">
                    <mxGeometry width="100" height="100" relative="1" as="geometry">
                        <mxPoint x="325" y="290" as="sourcePoint"/>
                        <mxPoint x="70" y="458.6" as="targetPoint"/>
                        <Array as="points">
                            <mxPoint x="325" y="330"/>
                            <mxPoint x="335" y="330"/>
                        </Array>
                    </mxGeometry>
                </mxCell>
                <mxCell id="k1iuGjt4R88vdQwVSWPt-4" value="" style="edgeStyle=entityRelationEdgeStyle;fontSize=12;html=1;endArrow=ERzeroToMany;endFill=1;rounded=0;exitX=1.005;exitY=0.219;exitDx=0;exitDy=0;exitPerimeter=0;" parent="1" source="Hh2Ufa-0gwu2Do368W7c-5" edge="1">
                    <mxGeometry width="100" height="100" relative="1" as="geometry">
                        <mxPoint x="390" y="400" as="sourcePoint"/>
                        <mxPoint x="410" y="430" as="targetPoint"/>
                    </mxGeometry>
                </mxCell>
            </root>
        </mxGraphModel>
    </diagram>
</mxfile>